<?xml version="1.0" standalone="no"?>
<!DOCTYPE svg PUBLIC "-//W3C//DTD SVG 1.1//EN" "http://www.w3.org/Graphics/SVG/1.1/DTD/svg11.dtd" >
<svg xmlns="http://www.w3.org/2000/svg">
<metadata>
This is a custom SVG webfont generated by Font Squirrel.
Copyright   : Copyright c The Font Bureau Inc 2003 All rights reserved
Designer    : Cyrus Highsmith Tobias FrereJones and Font Bureau
Foundry     : The Font Bureau Inc
Foundry URL : httpwwwfontbureaucom
</metadata>
<defs>
<font id="webfont8RdQVO7R" horiz-adv-x="1519" >
<font-face units-per-em="2048" ascent="1612" descent="-436" />
<missing-glyph horiz-adv-x="462" />
<glyph unicode=" "  horiz-adv-x="462" />
<glyph unicode="&#x09;" horiz-adv-x="462" />
<glyph unicode="&#xa0;" horiz-adv-x="462" />
<glyph unicode="!" horiz-adv-x="641" d="M233 0v190h179v-190h-179zM233 1516h177l-45 -1102h-84z" />
<glyph unicode="&#x22;" horiz-adv-x="829" d="M168 1403v113h141v-113l-35 -402h-71zM518 1403v113h144v-113l-35 -402h-74z" />
<glyph unicode="#" horiz-adv-x="1449" d="M90 444v117h262l82 393h-256v117h281l94 445h131l-92 -445h391l94 445h131l-94 -445h246v-117h-268l-84 -393h264v-117h-287l-94 -444h-131l92 444h-391l-94 -444h-131l92 444h-238zM483 561h394l81 393h-391z" />
<glyph unicode="$" horiz-adv-x="1325" d="M121 279l108 71q68 -104 155 -166.5t224 -72.5v624q-88 27 -168 58.5t-141 79t-97 114t-36 160.5q0 76 29.5 143.5t85 118.5t137.5 83t186 36v149h113v-151q84 -8 149.5 -33t114.5 -59.5t86 -76.5t63 -87l-108 -78q-29 45 -58.5 81t-65.5 62.5t-81 43t-104 22.5v-559 q92 -27 179 -59.5t154.5 -82t108.5 -123t41 -182.5q0 -174 -127 -282.5t-352 -122.5v-180h-113v182q-100 6 -180 35.5t-138.5 70.5t-99 89.5t-65.5 91.5zM305 1157q0 -61 23.5 -106t64.5 -78t96.5 -56.5t118.5 -44.5v533q-158 -8 -230.5 -79t-72.5 -169zM713 113 q70 4 132 19t108 48t74 83t28 122q0 74 -28 124t-74 87t-108.5 62.5t-131.5 46.5v-592z" />
<glyph unicode="%" horiz-adv-x="1986" d="M127 1077q0 104 24.5 190.5t68.5 146t107.5 92t141.5 32.5t140.5 -31.5t106.5 -91t67.5 -143.5t23.5 -187q0 -100 -22.5 -184t-66.5 -145.5t-107.5 -95t-143.5 -33.5q-82 0 -145.5 32.5t-106.5 92t-65.5 142.5t-22.5 183zM256 1085q0 -156 54.5 -250t158.5 -94 q51 0 90 26t65.5 72t40 108.5t13.5 133.5q0 154 -54.5 248t-156.5 94q-51 0 -91 -25.5t-66.5 -71.5t-40 -107.5t-13.5 -133.5zM475 0l905 1516h131l-905 -1516h-131zM1180 430q0 211 92 335t250 124t248 -122t90 -331q0 -98 -22.5 -182t-67 -145.5t-108 -95t-142.5 -33.5 q-82 0 -145.5 32.5t-106.5 92t-65.5 142.5t-22.5 183zM1309 436q0 -154 53 -249t158 -95q51 0 90 26.5t65.5 73t40 108.5t13.5 134q0 154 -53.5 248t-155.5 94q-51 0 -91 -25.5t-67 -71.5t-40 -108.5t-13 -134.5z" />
<glyph unicode="&#x26;" horiz-adv-x="1476" d="M82 375q0 84 27.5 151.5t77 125t114 103.5t137.5 85q-53 92 -78.5 175t-25.5 173q0 70 21.5 134t65.5 113.5t110.5 79t154.5 29.5q80 0 139.5 -22.5t99.5 -62.5t59.5 -92t19.5 -114q0 -78 -30 -142t-82 -117.5t-122 -98.5t-149 -86l63 -89l76 -102q76 -98 140.5 -172.5 t121.5 -130.5q66 86 104.5 198t55.5 245h137q-20 -152 -70.5 -284t-130.5 -236q86 -70 161 -99.5t146 -29.5v-129q-113 4 -205 40.5t-194 118.5q-88 -78 -196.5 -123t-245.5 -45q-125 0 -219.5 29t-158 82t-94 128t-30.5 165zM227 385q0 -137 91.5 -214t273.5 -77 q201 0 342 125q-63 59 -133 139t-156 189l-81 101q-38 48 -68 95q-121 -70 -195 -158.5t-74 -199.5zM473 1194q0 -76 21.5 -144.5t68.5 -150.5q61 33 117.5 67.5t98.5 75.5t66.5 90.5t24.5 110.5q0 72 -43 126t-141 54q-106 0 -159.5 -63.5t-53.5 -165.5z" />
<glyph unicode="'" horiz-adv-x="477" d="M168 1403v113h141v-113l-35 -402h-71z" />
<glyph unicode="(" horiz-adv-x="813" d="M129 559q0 293 129 530.5t381 448.5l63 -72q-193 -176 -305 -405.5t-112 -501.5q0 -274 113.5 -503.5t306.5 -405.5l-66 -70q-252 211 -381 448.5t-129 530.5z" />
<glyph unicode=")" horiz-adv-x="813" d="M109 -350q193 176 307 405.5t114 503.5q0 135 -29.5 261t-85 241t-132 216t-172.5 189l63 72q252 -211 382 -448.5t130 -530.5t-130 -530.5t-382 -448.5z" />
<glyph unicode="*" horiz-adv-x="1040" d="M94 1065v113l377 -27l-215 309l102 62l162 -342l162 342l102 -62l-213 -309l375 27v-113l-375 27l213 -310l-102 -59l-162 340l-162 -340l-102 59l213 310z" />
<glyph unicode="+" horiz-adv-x="1302" d="M135 612v123h453v459h127v-459h454v-123h-454v-458h-127v458h-453z" />
<glyph unicode="," horiz-adv-x="548" d="M186 0v193h176v-175l-92 -225h-65l49 207h-68z" />
<glyph unicode="-" horiz-adv-x="731" d="M135 582v123h461v-123h-461z" />
<glyph unicode="." horiz-adv-x="548" d="M186 0v193h176v-193h-176z" />
<glyph unicode="/" horiz-adv-x="1124" d="M47 0l881 1516h149l-880 -1516h-150z" />
<glyph unicode="0" horiz-adv-x="1337" d="M113 758q0 178 36.5 322.5t107.5 248t175.5 159.5t237.5 56t236.5 -56t174 -159.5t106.5 -248t36 -322.5t-36 -322.5t-106.5 -248t-174 -160t-236.5 -56.5t-237.5 56.5t-175.5 160t-107.5 248t-36.5 322.5zM258 758q0 -324 111.5 -492t300.5 -168q193 0 301 168t108 492 t-111.5 490.5t-297.5 166.5q-195 0 -303.5 -166.5t-108.5 -490.5z" />
<glyph unicode="1" horiz-adv-x="884" d="M123 0v131h285v1227q-55 -29 -135 -49.5t-146 -20.5v129q88 4 163 27.5t126 71.5h135v-1385h258v-131h-686z" />
<glyph unicode="2" horiz-adv-x="1202" d="M98 0v33q0 82 23.5 161.5t81 161.5t156 169t247.5 184q86 55 146.5 103t98.5 96t56.5 99.5t18.5 112.5q0 135 -80 215t-230 80q-244 0 -376 -262l-115 68q80 154 205 238.5t293 84.5q102 0 185 -30.5t140.5 -86t88 -131t30.5 -168.5q0 -78 -20.5 -143t-66.5 -126.5 t-121 -122t-183 -130.5q-207 -131 -308.5 -250.5t-109.5 -224.5h815v-131h-975z" />
<glyph unicode="3" horiz-adv-x="1210" d="M61 254l109 78q84 -125 185.5 -179.5t228.5 -54.5q168 0 264 84t96 226q0 84 -25.5 146t-84 104t-151.5 62.5t-226 20.5h-58v125h70q242 0 342 73t100 212q0 57 -18.5 105.5t-56 84t-99 55t-147.5 19.5q-117 0 -206 -51t-155 -133l-100 84q82 98 198.5 163.5t270.5 65.5 q121 0 207 -31.5t141 -84t81 -121t26 -142.5q0 -147 -80 -239t-219 -119q334 -70 333 -399q0 -92 -34.5 -172t-101 -138.5t-160 -92.5t-209.5 -34q-166 0 -300.5 74t-220.5 209z" />
<glyph unicode="4" horiz-adv-x="1241" d="M68 367v108l690 1041h178v-1020h256v-129h-256v-367h-139v367h-729zM231 496h566v850h-4z" />
<glyph unicode="5" horiz-adv-x="1191" d="M80 244l104 84q70 -100 164 -165t230 -65q98 0 168.5 34t117.5 89t69.5 127t22.5 148q0 92 -25.5 162.5t-71.5 117.5t-109.5 71.5t-139.5 24.5q-117 0 -199.5 -49t-146.5 -141l-108 41l59 793h801l-12 -134h-668l-41 -526q55 66 134 103.5t202 37.5q102 0 188 -34.5 t148.5 -99t97.5 -156t35 -205.5q0 -113 -36 -210t-103.5 -169t-164 -112t-216.5 -40q-166 0 -294 75t-206 198z" />
<glyph unicode="6" horiz-adv-x="1251" d="M113 731q0 176 44 324.5t122.5 257t187 170t240.5 61.5q127 0 214 -33.5t148 -80.5l-76 -111q-57 47 -122.5 72.5t-168.5 25.5q-104 0 -186 -52t-140.5 -142t-90 -213t-31.5 -265q37 39 82 76t98 64.5t116.5 45t135.5 17.5q121 0 209 -34.5t147.5 -98t88 -150.5 t28.5 -190q0 -106 -37 -198.5t-103.5 -160t-159.5 -106.5t-208 -39q-113 0 -211 46t-170.5 139.5t-114.5 236.5t-42 338zM260 600q12 -131 47 -226t88.5 -156.5t120 -91.5t141.5 -30q164 0 262.5 98.5t98.5 278.5q0 76 -19.5 140.5t-62.5 110.5t-108.5 72.5t-157.5 26.5 q-127 0 -233.5 -62.5t-176.5 -160.5z" />
<glyph unicode="7" horiz-adv-x="1124" d="M102 1382v134h932v-125l-641 -1391h-149l639 1382h-781z" />
<glyph unicode="8" horiz-adv-x="1243" d="M82 367q0 80 27.5 143t80 115.5t126 95.5t167.5 84q-78 35 -139 71.5t-104 80.5t-65.5 98.5t-22.5 124.5t31.5 136t92 117.5t148.5 82t199 30.5q115 0 201.5 -30.5t146 -82t90.5 -118t31 -135.5q0 -68 -22.5 -121t-65.5 -96t-105.5 -80t-142.5 -74q96 -43 172 -86 t128 -94t78.5 -114.5t26.5 -147.5q0 -80 -35.5 -153t-105.5 -127t-170 -86t-227 -32q-129 0 -229.5 32t-169 85t-105.5 126t-37 155zM225 375q0 -61 30 -113.5t82 -90.5t126 -58.5t160 -20.5t158.5 20.5t124.5 57.5t82 89t30 116q0 63 -26.5 114.5t-78 95.5t-126 83 t-173.5 80q-100 -45 -173.5 -86t-121 -84t-71 -92.5t-23.5 -110.5zM293 1180q0 -53 19.5 -95.5t61.5 -79t105.5 -70.5t149.5 -71q86 37 146.5 70t99 68.5t57 76.5t18.5 95q0 45 -19.5 90t-59.5 79.5t-101 57t-147 22.5q-82 0 -143.5 -21.5t-102.5 -55t-62.5 -77.5t-21.5 -89 z" />
<glyph unicode="9" horiz-adv-x="1251" d="M92 1040q0 109 37 201t103.5 159.5t159.5 105.5t208 38q113 0 210 -45t170 -139t115 -237.5t42 -338.5q0 -174 -43 -323.5t-122 -258t-187.5 -170t-239.5 -61.5q-133 0 -227.5 39t-159.5 96l73 109q33 -27 66 -48.5t69.5 -36.5t82 -23.5t100.5 -8.5q104 0 186 51.5 t140.5 142.5t89 214t30.5 264q-37 -39 -81 -76t-98 -64.5t-116.5 -45t-134.5 -17.5q-119 0 -208 36t-148 98.5t-88 149.5t-29 189zM233 1042q0 -76 19.5 -140t62.5 -110.5t108.5 -73t158.5 -26.5q127 0 233.5 62.5t175.5 160.5q-12 133 -47 227.5t-88 156t-120.5 90 t-143.5 28.5q-162 0 -260.5 -97.5t-98.5 -277.5z" />
<glyph unicode=":" horiz-adv-x="555" d="M188 0v193h179v-193h-179zM188 885v194h179v-194h-179z" />
<glyph unicode=";" horiz-adv-x="555" d="M188 0v193h179v-173l-95 -227h-65l49 207h-68zM188 885v194h179v-194h-179z" />
<glyph unicode="&#x3c;" horiz-adv-x="1302" d="M104 612v103l1084 465v-133l-920 -383l920 -383v-134z" />
<glyph unicode="=" horiz-adv-x="1302" d="M133 371v121h1034v-121h-1034zM133 838v120h1034v-120h-1034z" />
<glyph unicode="&#x3e;" horiz-adv-x="1302" d="M117 147v134l919 383l-919 383v133l1083 -465v-103z" />
<glyph unicode="?" horiz-adv-x="1103" d="M80 1286q41 55 89 102.5t105.5 82t127 54t155.5 19.5q100 0 181 -26.5t138.5 -75.5t89 -117t31.5 -149q0 -76 -20.5 -132.5t-55 -100.5t-82.5 -79t-104 -67q-63 -37 -100 -71t-55.5 -75t-22.5 -98t-4 -141h-117q-2 31 -3 65.5t-1 69.5q0 109 41 180.5t143 130.5 q61 37 105.5 68.5t74 65.5t43 76t13.5 99q0 117 -80 182.5t-223 65.5q-131 0 -216 -57.5t-151 -149.5zM406 0v190h178v-190h-178z" />
<glyph unicode="@" horiz-adv-x="1777" d="M100 758q0 176 59.5 320.5t165 248t250 160.5t314.5 57t314.5 -56t250 -157.5t164.5 -242t59 -310.5q0 -109 -25.5 -193.5t-71.5 -144t-108.5 -90.5t-136.5 -31q-100 0 -160.5 45.5t-80.5 110.5q-74 -68 -158 -108.5t-184 -40.5q-66 0 -122.5 19.5t-97 60t-64.5 102 t-24 145.5q0 117 32 217.5t88.5 176t136 118.5t173.5 43q92 0 155 -31.5t112 -80.5l14 94h117l-88 -602q-12 -78 29.5 -130t132.5 -52q51 0 95 22.5t77.5 67.5t53 115.5t19.5 164.5q0 152 -52 279t-146.5 217t-223.5 140t-280 50q-152 0 -280 -51t-221 -144t-145.5 -223.5 t-52.5 -285.5q0 -156 52.5 -286t144.5 -223t220 -145.5t280 -52.5q123 0 222 27.5t196 81.5l36 -70q-98 -53 -212.5 -86t-243.5 -33q-172 0 -316.5 57.5t-248 161t-162 248t-58.5 320.5zM567 664q0 -127 54.5 -182.5t148.5 -55.5q78 0 147.5 29.5t143.5 101.5l63 428 q-53 63 -113.5 91t-142.5 28q-68 0 -123 -36t-95 -95.5t-61.5 -139t-21.5 -169.5z" />
<glyph unicode="A" horiz-adv-x="1378" d="M74 0l536 1522h158l537 -1522h-152l-162 467h-614l-162 -467h-141zM422 596h524l-260 754h-4z" />
<glyph unicode="B" horiz-adv-x="1402" d="M195 0v1516h526q258 0 386 -100.5t128 -280.5q0 -76 -22.5 -136.5t-62.5 -103.5t-91 -70.5t-111 -40.5v-4q72 -12 132.5 -40.5t106.5 -75t71.5 -108.5t25.5 -144q0 -90 -31.5 -166t-96 -130.5t-162 -85t-228.5 -30.5h-571zM338 129h426q197 0 287 75t90 214 q0 154 -113 225.5t-309 71.5h-381v-586zM338 842h371q182 0 282.5 66.5t100.5 207.5t-90.5 204.5t-288.5 63.5h-375v-542z" />
<glyph unicode="C" horiz-adv-x="1431" d="M121 764q0 172 45 315.5t128 247t199.5 160.5t258.5 57q115 0 205 -32.5t157.5 -93t113.5 -146.5t72 -191l-139 -34q-51 180 -144 272t-267 92q-111 0 -200 -46t-151.5 -130t-97.5 -203t-35 -264q0 -158 35 -282t98.5 -208.5t153.5 -130t201 -45.5q170 0 276.5 96.5 t155.5 288.5l139 -30q-55 -225 -199.5 -355.5t-373.5 -130.5q-143 0 -260 56.5t-199 159t-127 250t-45 327.5z" />
<glyph unicode="D" horiz-adv-x="1452" d="M195 0v1516h383q373 0 563 -189.5t190 -566.5t-192.5 -568.5t-560.5 -191.5h-383zM340 131h260q281 0 433.5 150.5t152.5 478.5q0 322 -153.5 471t-436.5 149h-256v-1249z" />
<glyph unicode="E" horiz-adv-x="1236" d="M195 0v1516h905v-136h-760v-514h567v-131h-567v-602h803v-133h-948z" />
<glyph unicode="F" horiz-adv-x="1157" d="M195 0v1516h886v-136h-741v-522h549v-131h-549v-727h-145z" />
<glyph unicode="G" horiz-adv-x="1480" d="M121 764q0 178 47 322.5t132 246t200.5 156.5t253.5 55q217 0 354 -117.5t197 -347.5l-140 -32q-27 94 -63.5 162.5t-85.5 113.5t-114.5 66.5t-149.5 21.5q-98 0 -186.5 -40t-155 -121t-105.5 -200.5t-39 -279.5t36 -284t100.5 -208.5t154.5 -130t199 -45.5q96 0 173 33 t132 95.5t85 152.5t30 205h-367v125h508v-713h-131v231h-4q-25 -49 -63 -96t-92 -84t-123.5 -58.5t-160.5 -21.5q-150 0 -265.5 60.5t-195 166t-120.5 251t-41 315.5z" />
<glyph unicode="H" horiz-adv-x="1499" d="M195 0v1516h145v-650h821v650h146v-1516h-146v733h-821v-733h-145z" />
<glyph unicode="I" horiz-adv-x="575" d="M215 0v1516h145v-1516h-145z" />
<glyph unicode="J" horiz-adv-x="1019" d="M55 180l103 78q49 -72 111.5 -115t154.5 -43q61 0 110.5 16.5t85 52.5t55 94.5t19.5 144.5v1108h146v-1110q0 -217 -108.5 -326t-301.5 -109q-70 0 -126 15.5t-102 43t-82 66.5t-65 84z" />
<glyph unicode="K" horiz-adv-x="1368" d="M195 0v1516h145v-818l725 818h178l-520 -574l596 -942h-168l-526 829l-285 -311v-518h-145z" />
<glyph unicode="L" horiz-adv-x="1157" d="M195 0v1516h145v-1383h741v-133h-886z" />
<glyph unicode="M" horiz-adv-x="1783" d="M195 0v1516h188l508 -1328h4l504 1328h192v-1516h-145v1270h-4q-16 -51 -41 -122l-53 -144l-394 -1004h-133l-393 1004l-26 68l-22 63l-23 64q-11 34 -23 75h-4v-1274h-135z" />
<glyph unicode="N" horiz-adv-x="1521" d="M195 0v1516h155l836 -1250h4v1250h137v-1516h-129l-862 1288h-4v-1288h-137z" />
<glyph unicode="O" d="M121 758q0 178 48 323.5t133 248t202 158.5t256 56t256 -56t202 -158.5t133 -248t48 -323.5t-48 -323.5t-133 -248t-202 -159t-256 -56.5t-256 56.5t-202 159t-133 248t-48 323.5zM266 758q0 -154 37 -276t102.5 -207t156.5 -129t198 -44q109 0 199 44t155.5 129t102 207 t36.5 276t-36.5 275.5t-102 205.5t-156 128t-198.5 44q-106 0 -197.5 -44t-157 -128t-102.5 -205.5t-37 -275.5z" />
<glyph unicode="P" horiz-adv-x="1316" d="M195 0v1516h503q248 0 389.5 -102.5t141.5 -311.5q0 -115 -40 -196t-112.5 -133t-172 -76.5t-220.5 -24.5h-344v-672h-145zM340 801h354q188 0 288.5 66.5t100.5 230.5q0 154 -99 219t-292 65h-352v-581z" />
<glyph unicode="Q" d="M121 758q0 178 48 323.5t134 248t203 158.5t254 56t253.5 -56t203 -158.5t134.5 -248t48 -323.5q0 -166 -42 -305.5t-119 -240.5t-181.5 -162.5t-231.5 -74.5q6 -68 33 -111.5t71 -69t103.5 -36t128.5 -10.5h105v-129h-136q-115 0 -198.5 26.5t-140 75t-84 114 t-27.5 142.5q-123 14 -226.5 77t-177 164t-114.5 238.5t-41 301.5zM266 758q0 -154 37 -277t102.5 -207t156.5 -129t198 -45q106 0 196.5 45t156 129t102 207t36.5 277t-36.5 275.5t-102 205.5t-156 128t-196.5 44t-197.5 -44t-157 -128t-102.5 -205.5t-37 -275.5z" />
<glyph unicode="R" horiz-adv-x="1374" d="M195 0v1516h507q256 0 391.5 -104.5t135.5 -305.5q0 -184 -99.5 -281.5t-263.5 -128.5l383 -696h-164l-370 680h-377v-680h-143zM338 809h354q188 0 289.5 63.5t101.5 227.5q0 158 -101 220t-292 62h-352v-573z" />
<glyph unicode="S" horiz-adv-x="1329" d="M119 373l129 47q51 -160 162.5 -240t271.5 -80q172 0 273.5 73t101.5 202q0 59 -16.5 105t-61.5 85t-122 75t-198 75q-123 39 -215 76.5t-153.5 88t-92 116t-30.5 159.5q0 82 35 152.5t97 123t148.5 83t190.5 30.5q106 0 191 -25.5t148.5 -71.5t109 -110.5t71.5 -140.5 l-123 -57q-57 147 -156.5 210.5t-242.5 63.5q-76 0 -136.5 -19.5t-102.5 -52t-64.5 -77.5t-22.5 -99q0 -63 20.5 -108t70 -82t130 -69t199.5 -70q119 -37 207 -78t146.5 -93.5t88 -120t29.5 -159.5q0 -94 -40 -171t-109.5 -130t-165.5 -83t-211 -30q-215 0 -359.5 108 t-197.5 294z" />
<glyph unicode="T" horiz-adv-x="1263" d="M70 1380v136h1124v-136h-489v-1380h-146v1380h-489z" />
<glyph unicode="U" horiz-adv-x="1464" d="M180 512v1004h146v-979q0 -92 23.5 -172t73.5 -137.5t127 -90.5t183 -33q104 0 181 32t127.5 88.5t74 135t23.5 172.5v984h145v-1000q0 -113 -35 -212t-103.5 -173t-172 -116t-242.5 -42t-242.5 42t-172 115t-102.5 171t-34 211z" />
<glyph unicode="V" horiz-adv-x="1349" d="M74 1516h149l453 -1323h4l455 1323h141l-533 -1522h-137z" />
<glyph unicode="W" horiz-adv-x="1894" d="M82 1516h147l236 -920q29 -104 52.5 -203.5t39.5 -177.5h4l39 176l49 203l225 922h154l229 -930l49 -195q22 -90 37 -176h5q20 92 42 177l46 188l237 936h139l-401 -1516h-137l-322 1315h-4l-325 -1315h-138z" />
<glyph unicode="X" horiz-adv-x="1345" d="M66 0l528 813l-461 703h168l377 -588l377 588h155l-456 -703l526 -813h-156l-454 698l-455 -698h-149z" />
<glyph unicode="Y" horiz-adv-x="1265" d="M51 1516h158l426 -723l424 723h155l-509 -848v-668h-146v668z" />
<glyph unicode="Z" horiz-adv-x="1275" d="M86 0v104l909 1289h-850v123h1026v-107l-905 -1286h905v-123h-1085z" />
<glyph unicode="[" horiz-adv-x="796" d="M180 -410v1926h520v-109h-376v-1708h376v-109h-520z" />
<glyph unicode="\" horiz-adv-x="1112" d="M41 1516h149l881 -1516h-149z" />
<glyph unicode="]" horiz-adv-x="796" d="M96 -301h377v1706h-377v111h520v-1926h-520v109z" />
<glyph unicode="^" horiz-adv-x="1044" d="M205 1188l264 325h106l265 -325h-90l-230 201l-229 -201h-86z" />
<glyph unicode="_" horiz-adv-x="1024" d="M0 -143h1024v-115h-1024v115z" />
<glyph unicode="`" horiz-adv-x="1024" d="M297 1513h186l195 -319h-92z" />
<glyph unicode="a" horiz-adv-x="1120" d="M98 252q0 80 37 148.5t123 126t226.5 102.5t344.5 76v55q0 113 -56 167t-163 54q-129 0 -223 -48t-180 -122l-76 88q98 90 215 145.5t277 55.5q182 0 264 -91t82 -253v-490q0 -98 7 -161.5t23 -104.5h-145q-10 35 -17.5 70.5t-7.5 83.5q-94 -86 -198.5 -129t-227.5 -43 q-145 0 -225 71.5t-80 198.5zM238 270q0 -86 52 -129t144 -43q115 0 213 45t182 125v336q-174 -29 -287.5 -64.5t-181 -77.5t-95 -90.5t-27.5 -101.5z" />
<glyph unicode="b" horiz-adv-x="1214" d="M164 0v1516h141v-594q66 72 152 125t209 53q92 0 174 -35t141 -103.5t94 -174t35 -246.5t-35 -247t-96 -174.5t-145 -103t-181 -34.5q-104 0 -190 46t-158 119v-147h-141zM305 276q80 -86 161 -131t175 -45q72 0 132.5 26t103.5 79t67.5 136t24.5 198q0 113 -25.5 195.5 t-71 137t-104.5 81t-127 26.5q-100 0 -179 -48t-157 -130v-525z" />
<glyph unicode="c" horiz-adv-x="1087" d="M102 539q0 145 41 250.5t108.5 175t155 102.5t177.5 33q86 0 152.5 -23.5t115.5 -64.5t85 -94.5t60 -112.5l-120 -53q-45 111 -114 169t-183 58q-59 0 -120 -22.5t-109 -75t-77.5 -136t-29.5 -204.5q0 -106 25.5 -188.5t69.5 -138.5t105.5 -86t130.5 -30 q113 0 182.5 54.5t127.5 175.5l114 -49q-63 -137 -164.5 -219.5t-265.5 -82.5q-92 0 -177 37t-149.5 109t-102.5 176.5t-38 239.5z" />
<glyph unicode="d" horiz-adv-x="1214" d="M104 539q0 141 35 246.5t96.5 175t145.5 104.5t180 35q104 0 194.5 -48t153.5 -120v584h142v-1250q0 -98 7 -161.5t25 -104.5h-149q-10 29 -17.5 72t-7.5 86q-33 -35 -70.5 -67t-81.5 -56.5t-95.5 -38.5t-112.5 -14q-92 0 -174 33.5t-141.5 103t-94.5 174.5t-35 246z M246 537q0 -111 25.5 -193t70.5 -136t104.5 -80t126.5 -26q100 0 179 47.5t157 129.5v524q-80 86 -160.5 132t-175.5 46q-72 0 -132 -26.5t-103 -81t-67.5 -138t-24.5 -198.5z" />
<glyph unicode="e" horiz-adv-x="1118" d="M102 541q0 143 42 248.5t110 174t151.5 102.5t169.5 34q94 0 175 -36t139.5 -106.5t92.5 -175t34 -243.5v-27h-772q0 -100 27.5 -177t73.5 -130t107.5 -81t131.5 -28q121 0 197.5 51.5t138.5 145.5l88 -70q-72 -115 -175.5 -180.5t-257.5 -65.5q-94 0 -180 36t-150.5 108 t-103.5 177.5t-39 242.5zM246 625h633q-6 78 -27 142t-58.5 112.5t-93 75t-127.5 26.5q-57 0 -112 -21.5t-99.5 -65.5t-75 -110.5t-40.5 -158.5z" />
<glyph unicode="f" horiz-adv-x="675" d="M55 958v121h189v162q0 276 309 277q20 0 44 -1t38 -4v-118q-12 2 -33.5 3t-38.5 1q-78 0 -128 -34t-50 -122v-164h238v-121h-238v-958h-141v958h-189z" />
<glyph unicode="g" horiz-adv-x="1155" d="M45 -143q0 84 52.5 146.5t146.5 98.5q-96 39 -97 138q0 49 36 90t96 71q-78 49 -121 129t-43 181q0 86 32.5 157.5t89 122.5t134.5 80t170 29q94 0 172 -29t135 -82q47 35 115.5 62.5t134.5 35.5v-133q-47 0 -98.5 -8t-98.5 -28q63 -86 64 -207q0 -88 -33 -159 t-89.5 -121t-134 -76.5t-167.5 -26.5q-94 0 -174 30q-39 -16 -62.5 -38.5t-23.5 -53.5q0 -35 33.5 -53t125.5 -29l236 -18q188 -16 284.5 -82t96.5 -193q0 -74 -37 -131t-102.5 -95t-157.5 -58.5t-203 -20.5q-264 0 -388 73t-124 198zM180 -125q0 -86 93.5 -132t297.5 -46 q166 0 260.5 50t94.5 132q0 78 -67.5 118t-227.5 52l-215 17l-56 6q-92 -29 -136 -82.5t-44 -114.5zM252 709q0 -125 79 -199t212 -74t210.5 74t77.5 199q0 129 -75.5 203.5t-214.5 74.5q-135 0 -212 -75.5t-77 -202.5z" />
<glyph unicode="h" horiz-adv-x="1189" d="M164 0v1516h141v-607q78 78 180.5 134.5t231.5 56.5q160 0 240.5 -84t80.5 -236v-780h-141v754q0 115 -52 170t-163 55q-104 0 -194.5 -50t-182.5 -138v-791h-141z" />
<glyph unicode="i" horiz-adv-x="491" d="M172 1329v152h150v-152h-150zM176 0v1079h141v-1079h-141z" />
<glyph unicode="j" horiz-adv-x="491" d="M6 -291q12 -4 29.5 -6t34.5 -2q49 0 77.5 28.5t28.5 92.5v1257h141v-1259q0 -111 -51 -171.5t-176 -60.5q-16 0 -45 2t-39 7v112zM172 1329v152h150v-152h-150z" />
<glyph unicode="k" horiz-adv-x="1085" d="M164 0v1516h141v-1006l514 569h166l-352 -381l395 -698h-154l-335 590l-234 -250v-340h-141z" />
<glyph unicode="l" horiz-adv-x="491" d="M176 0v1516h141v-1516h-141z" />
<glyph unicode="m" horiz-adv-x="1869" d="M164 0v1079h141v-170q82 80 177.5 135.5t217.5 55.5q137 0 205 -54.5t92 -140.5q86 80 186.5 137.5t221.5 57.5q166 0 238.5 -86t72.5 -234v-780h-141v754q0 115 -44 170t-159 55q-98 0 -183 -50t-177 -138v-791h-142v754q0 115 -44 170t-160 55q-98 0 -183.5 -50 t-177.5 -138v-791h-141z" />
<glyph unicode="n" horiz-adv-x="1189" d="M164 0v1079h141v-170q78 78 180.5 134.5t231.5 56.5q160 0 240.5 -84t80.5 -236v-780h-141v754q0 115 -52 170t-163 55q-104 0 -194.5 -50t-182.5 -138v-791h-141z" />
<glyph unicode="o" horiz-adv-x="1181" d="M102 539q0 135 39 239.5t105.5 176t156 108.5t189.5 37q98 0 187 -37t155.5 -108.5t105.5 -176t39 -239.5t-39 -239.5t-105.5 -176.5t-155.5 -109t-187 -37t-187.5 37t-157 109t-106.5 176.5t-39 239.5zM244 541q0 -90 21.5 -170t65.5 -140.5t109.5 -96.5t151.5 -36 q82 0 146.5 33t108.5 91.5t67.5 139t23.5 179.5q0 88 -22.5 167.5t-65.5 139t-107.5 95.5t-150.5 36q-82 0 -146.5 -33t-109.5 -91t-68.5 -138t-23.5 -176z" />
<glyph unicode="p" horiz-adv-x="1214" d="M164 -410v1489h141v-153q66 70 152 122t209 52q92 0 174 -35t141 -103.5t94 -174t35 -246.5t-35 -247t-96 -174.5t-145 -103t-181 -34.5q-104 0 -190 46t-158 119v-557h-141zM305 276q80 -86 161 -131t175 -45q72 0 132.5 26t103.5 79t67.5 136t24.5 198 q0 113 -25.5 195.5t-71 137t-104.5 81t-127 26.5q-100 0 -179 -48t-157 -130v-525z" />
<glyph unicode="q" horiz-adv-x="1214" d="M104 539q0 141 35 246.5t96.5 175t145.5 104.5t180 35q104 0 190.5 -46t157.5 -118v143h142v-1489h-142v568q-33 -35 -70.5 -67t-81.5 -56.5t-95.5 -38.5t-112.5 -14q-92 0 -174 33.5t-141.5 103t-94.5 174.5t-35 246zM246 537q0 -111 25.5 -193t70.5 -136t104.5 -80 t126.5 -26q100 0 179 47.5t157 129.5v524q-80 86 -160.5 132t-175.5 46q-72 0 -132 -26.5t-103 -81t-67.5 -138t-24.5 -198.5z" />
<glyph unicode="r" horiz-adv-x="808" d="M164 0v1079h141v-213h4q63 100 166 167t262 67h25l-14 -131q-12 2 -21 2h-22q-133 0 -234.5 -70t-165.5 -199v-702h-141z" />
<glyph unicode="s" horiz-adv-x="1036" d="M88 172l90 82q61 -72 142 -114t194 -42q139 0 210 48.5t71 140.5q0 45 -16.5 76.5t-52.5 56t-92 44t-136 38.5q-92 23 -163 48t-118 61t-70.5 86.5t-23.5 119.5q0 57 24.5 108.5t71.5 90.5t114.5 61.5t155.5 22.5q139 0 233.5 -42t166.5 -114l-80 -94q-61 61 -139 97 t-176 36q-125 0 -179.5 -49t-54.5 -111q0 -39 14.5 -67.5t46 -51t82 -40t119.5 -33.5q102 -25 178 -51.5t128.5 -65.5t78 -92t25.5 -133q0 -74 -32 -131.5t-87 -97.5t-132 -60t-169 -20q-145 0 -254 54t-170 138z" />
<glyph unicode="t" horiz-adv-x="747" d="M49 958v121h189v387h141v-387h280v-121h-280v-677q0 -86 35 -131.5t135 -45.5q31 0 60.5 3.5t52.5 11.5v-121q-25 -4 -64 -8t-76 -4q-156 0 -220 62.5t-64 203.5v706h-189z" />
<glyph unicode="u" horiz-adv-x="1189" d="M154 299v780h141v-755q0 -115 51 -170.5t164 -55.5q104 0 193.5 51.5t181.5 137.5v792h143v-1079h-143v170q-78 -78 -180.5 -135.5t-229.5 -57.5q-162 0 -241.5 85t-79.5 237z" />
<glyph unicode="v" horiz-adv-x="1042" d="M53 1079h152l319 -911h4l318 911h143l-397 -1083h-141z" />
<glyph unicode="w" horiz-adv-x="1529" d="M55 1079h148l151 -534l27 -95l25 -88q12 -43 23 -87l26 -97h4l26 103l22.5 87t22.5 84l27 93l148 534h129l149 -544l27 -92q12 -42 22 -83l22 -85q11 -44 23 -97h4q14 55 26.5 98t23 83t22.5 81l27 90l157 549h138l-332 -1079h-131l-244 887h-4l-248 -887h-129z" />
<glyph unicode="x" horiz-adv-x="1046" d="M63 0l388 559l-361 520h158l280 -415l281 415h154l-363 -520l387 -559h-156l-309 453l-307 -453h-152z" />
<glyph unicode="y" horiz-adv-x="1079" d="M23 -391l32 117q23 -6 60 -11.5t90 -5.5q88 0 137 40t84 126l45 119l-418 1085h152l336 -911h4l334 911h147l-465 -1204q-27 -72 -57.5 -126t-71.5 -90t-97 -54.5t-134 -18.5q-61 0 -103 6.5t-75 16.5z" />
<glyph unicode="z" horiz-adv-x="1036" d="M84 0v90l657 871h-604v118h783v-92l-658 -870h686v-117h-864z" />
<glyph unicode="{" horiz-adv-x="778" d="M72 500v106q57 0 100 10.5t70.5 38t42 74.5t14.5 123v385q0 135 62.5 207t203.5 72h127v-109h-90q-84 0 -122 -40t-38 -118v-403q0 -76 -11 -125t-33.5 -82t-55.5 -51.5t-74 -32.5v-4q41 -14 74 -32.5t55.5 -51.5t33.5 -82t11 -125v-403q0 -78 38 -118t122 -40h90v-109 h-127q-141 0 -203.5 72t-62.5 207v385q0 76 -14.5 123t-42 74.5t-70.5 38t-100 10.5z" />
<glyph unicode="|" horiz-adv-x="706" d="M285 -410v1926h137v-1926h-137z" />
<glyph unicode="}" horiz-adv-x="778" d="M86 -301h90q84 0 122 40t38 118v409q0 76 11 124t33.5 80t55.5 49.5t74 31.5v4q-41 14 -74 31.5t-55.5 49.5t-33.5 80t-11 124v409q0 78 -34 121t-118 43h-90l-8 103h133q141 0 200.5 -69t59.5 -204v-391q0 -76 14.5 -123t42 -74.5t70.5 -38t101 -10.5v-106 q-57 0 -100.5 -10.5t-71 -38t-42 -74.5t-14.5 -123v-391q0 -135 -59.5 -204t-200.5 -69h-133v109z" />
<glyph unicode="~" horiz-adv-x="1032" d="M193 852q0 117 43 171t129 54q43 0 83.5 -17.5t78.5 -39t74 -39.5t67 -18q45 0 64.5 25.5t19.5 84.5h90q0 -225 -174 -225q-43 0 -84 18.5t-79 40t-73 39t-65 17.5q-47 0 -65.5 -26t-18.5 -85h-90z" />
<glyph unicode="&#xa1;" horiz-adv-x="641" d="M229 1325v191h179v-191h-179zM231 0l45 1102h84l48 -1102h-177z" />
<glyph unicode="&#xa2;" horiz-adv-x="1089" d="M102 539q0 145 41 250.5t108.5 174t155 102.5t177.5 34h30q14 0 29 -2l57 209h99l-64 -230q100 -35 161.5 -108.5t100.5 -163.5l-116 -53q-33 80 -77 133t-108 76l-229 -846q49 -18 108 -19q113 0 183.5 55.5t130.5 176.5l110 -49q-63 -137 -164.5 -219.5t-265.5 -82.5 q-70 0 -131 21l-71 -262h-99l84 299q-111 63 -180.5 191.5t-69.5 312.5zM240 541q0 -137 41 -234.5t108 -150.5l225 823q-8 2 -17 2h-17q-59 0 -120 -22.5t-110 -75t-79.5 -136t-30.5 -206.5z" />
<glyph unicode="&#xa3;" horiz-adv-x="1247" d="M63 174q0 102 61.5 165.5t172.5 63.5q61 0 113.5 -24.5t101.5 -61.5q4 29 6 61t2 66q0 86 -23.5 159t-58.5 138h-260v113h199q-39 72 -68.5 145.5t-29.5 161.5q0 84 26.5 154.5t76.5 121t123 79t165 28.5q104 0 178 -32.5t121 -86t71.5 -122t30.5 -140.5l-137 -16 q-4 59 -20.5 108.5t-48 86t-81 57t-116.5 20.5q-121 0 -184.5 -68.5t-63.5 -187.5q0 -84 33.5 -157.5t74.5 -151.5h353v-113h-295q29 -63 47 -131.5t18 -154.5q0 -66 -8 -121t-25 -105q59 -51 122 -93t134 -42q96 0 138.5 66.5t52.5 212.5h129q-2 -86 -20.5 -159t-55.5 -127 t-94 -85t-141 -31q-96 0 -172 49.5t-144 108.5q-98 -158 -282 -158q-39 0 -79 12.5t-72 38t-51.5 63.5t-19.5 89zM174 178q0 -51 34 -78.5t83 -27.5q66 0 113 32.5t75 102.5q-45 41 -90 67.5t-94 26.5q-55 0 -88 -34t-33 -89z" />
<glyph unicode="&#xa4;" horiz-adv-x="1468" d="M43 543v116h248q-2 25 -3 51.5t-1 55.5q0 23 1 44t1 44h-246v113h258q23 150 76 259t127 180t164 104.5t186 33.5q104 0 183 -31.5t136.5 -88t97.5 -136.5t64 -176l-133 -39q-23 80 -49.5 143.5t-66 107.5t-96 67.5t-138.5 23.5q-74 0 -140.5 -26.5t-120.5 -82 t-93 -139.5t-56 -200h465v-113h-477q-2 -20 -2 -40v-40q0 -31 1 -59.5t3 -55.5h475v-116h-463q35 -221 140.5 -333t271.5 -112q156 0 239 93.5t130 269.5l133 -35q-27 -100 -71 -184t-105.5 -144.5t-143.5 -93.5t-184 -33q-104 0 -194.5 35t-162 105.5t-121.5 178t-73 253.5 h-260z" />
<glyph unicode="&#xa5;" horiz-adv-x="1261" d="M53 1516h158l424 -717l420 717h153l-501 -834h391v-115h-396v-194h396v-115h-396v-258h-145v258h-391v115h391v194h-391v115h387z" />
<glyph unicode="&#xa6;" horiz-adv-x="706" d="M285 -410v838h137v-838h-137zM285 678v838h137v-838h-137z" />
<glyph unicode="&#xa7;" horiz-adv-x="1085" d="M111 598q0 61 24.5 113.5t62.5 94.5t84 73.5t91 54.5q-57 41 -95 77t-60.5 71.5t-32 73.5t-9.5 81q0 59 24.5 114.5t71.5 98.5t115 68.5t154 25.5q98 0 168.5 -23.5t119 -63.5t77 -95t42.5 -117l-123 -39q-29 104 -92 162.5t-186 58.5q-61 0 -105.5 -15t-72 -40.5 t-41 -59.5t-13.5 -69q0 -37 12.5 -68.5t42 -64.5t80 -68.5t125.5 -80.5q109 -63 184 -112.5t123 -98t69.5 -98.5t21.5 -115q0 -61 -23.5 -113.5t-60.5 -95.5t-83 -75t-91 -54q57 -41 94 -77t57.5 -71t27.5 -72.5t7 -80.5q0 -59 -23.5 -114.5t-68.5 -98.5t-111.5 -69 t-152.5 -26q-94 0 -163 24t-117 63.5t-76.5 95t-43.5 116.5l121 37q29 -104 89.5 -161.5t183.5 -57.5q61 0 104 15.5t69.5 41t38 59.5t11.5 68q0 37 -11.5 69t-39 64.5t-76.5 68.5t-125 81l-183 113q-77 49 -124 97t-69.5 98t-22.5 116zM244 612q0 -43 14 -76.5t53 -70.5 t105.5 -81t171.5 -105q6 -4 13 -7.5t13 -7.5q111 47 169.5 111.5t58.5 146.5q0 43 -14.5 77t-53.5 71t-105.5 81t-170.5 105q-6 4 -13.5 7t-15.5 7q-104 -47 -164.5 -111.5t-60.5 -146.5z" />
<glyph unicode="&#xa8;" horiz-adv-x="1036" d="M258 1194v168h158v-168h-158zM618 1194v168h158v-168h-158z" />
<glyph unicode="&#xa9;" horiz-adv-x="1767" d="M102 758q0 164 60.5 307t167 249.5t249 168t306.5 61.5t306 -61.5t247.5 -168t166 -249.5t60.5 -307t-60.5 -307.5t-167 -250t-248.5 -168t-306 -61.5t-306.5 61.5t-248 168t-166 250t-60.5 307.5zM193 758q0 -145 53 -273.5t147 -223.5t220 -150.5t272 -55.5 q145 0 271 55.5t219 150.5t146.5 223t53.5 274q0 145 -53.5 273t-147.5 223.5t-220 150.5t-271 55t-271.5 -55t-219.5 -150.5t-146 -223.5t-53 -273zM522 772q0 96 25.5 178t72 141.5t113 93.5t148.5 34q131 0 207.5 -73t111.5 -202l-94 -24q-31 104 -82 155t-143 51 q-57 0 -105.5 -25.5t-81 -71.5t-51 -110.5t-18.5 -144.5q0 -172 68.5 -267t189.5 -95q178 0 233 217q23 -6 43 -13q16 -4 32.5 -7t20.5 -5q-35 -135 -118.5 -210t-214.5 -75q-82 0 -147.5 33t-112 92.5t-72 142.5t-25.5 185z" />
<glyph unicode="&#xaa;" horiz-adv-x="849" d="M104 948q0 55 26 104.5t86 89.5t158.5 70.5t241.5 53.5v34q0 147 -145 148q-88 0 -152.5 -29.5t-123.5 -87.5l-68 66q72 68 153.5 106.5t198.5 38.5q129 0 189.5 -64.5t60.5 -179.5v-337q0 -66 5 -110t22 -79h-121q-8 25 -12.5 49.5t-6.5 52.5q-66 -55 -137 -86.5 t-153 -31.5q-104 0 -163 50t-59 142zM217 961q0 -53 36 -82t95 -29q78 0 144.5 32.5t123.5 86.5v219q-121 -18 -198.5 -43t-121.5 -53.5t-61.5 -61t-17.5 -69.5z" />
<glyph unicode="&#xab;" horiz-adv-x="1069" d="M92 541l303 538h148l-297 -538l297 -541h-148zM498 541l305 538h145l-299 -538l299 -541h-145z" />
<glyph unicode="&#xac;" horiz-adv-x="1556" d="M20 678v156l386 -25l-15 225l-65 -4v125l59 -4l-4 59h127l-4 -65l223 -12l-27 383h156l-25 -383l224 12l-4 65h125l-5 -59l62 4v-125l-68 2l-12 -223l383 25v-156l-383 27l12 -222l68 4v-127l-62 5l5 -62h-125l4 68l-224 14l25 -385h-156l27 385l-223 -14l4 -68h-127 l4 62l-59 -5v127l65 -4l15 222zM487 705l13 -226l227 -12v238h-240zM487 809h240v242l-229 -13zM831 467l228 10l12 228h-240v-238zM831 809h240l-12 229l-228 13v-242z" />
<glyph unicode="&#xad;" horiz-adv-x="731" d="M135 582v123h461v-123h-461z" />
<glyph unicode="&#xae;" horiz-adv-x="1767" d="M102 758q0 164 60.5 307t167 249.5t249 168t306.5 61.5t306 -61.5t247.5 -168t166 -249.5t60.5 -307t-60.5 -307.5t-167 -250t-248.5 -168t-306 -61.5t-306.5 61.5t-248 168t-166 250t-60.5 307.5zM193 758q0 -145 53 -273.5t147 -223.5t220 -150.5t272 -55.5 q145 0 271 55.5t219 150.5t146.5 223t53.5 274q0 145 -53.5 273t-147.5 223.5t-220 150.5t-271 55t-271.5 -55t-219.5 -150.5t-146 -223.5t-53 -273zM600 340v864h295q147 0 226 -60.5t79 -176.5q0 -104 -54 -159.5t-142 -74.5l210 -393h-110l-205 379h-197v-379h-102z M702 805h189q98 0 153.5 34.5t55.5 123.5q0 82 -55.5 115.5t-155.5 33.5h-187v-307z" />
<glyph unicode="&#xaf;" horiz-adv-x="1024" d="M221 1270v121h582v-121h-582z" />
<glyph unicode="&#x2c9;" horiz-adv-x="1024" d="M221 1270v121h582v-121h-582z" />
<glyph unicode="&#xb0;" horiz-adv-x="825" d="M123 1257q0 61 22.5 114.5t60.5 91.5t91 59.5t115 21.5q61 0 114.5 -21.5t92 -59.5t61 -91t22.5 -115q0 -61 -22.5 -114t-61 -91t-92 -59.5t-114.5 -21.5t-114.5 21.5t-91.5 59.5t-60.5 91t-22.5 114zM227 1257q0 -86 52.5 -140t132.5 -54q82 0 134 54t52 140t-52 139.5 t-134 53.5q-80 0 -132.5 -53.5t-52.5 -139.5z" />
<glyph unicode="&#xb1;" horiz-adv-x="1759" d="M55 958v121h189v162q0 137 77.5 207t225.5 70q20 0 42.5 -1t35.5 -4v-118q-12 2 -33 3t-37 1q-78 0 -124 -37t-46 -119v-164h459v158q0 137 77.5 209t225.5 72q18 0 41.5 -1t36.5 -4v-118q-12 2 -31.5 3t-36.5 1q-78 0 -125 -37t-47 -119v-164h229v-121h-229v-958h-141 v958h-459v-958h-141v958h-189zM1444 0v1513h141v-1513h-141z" />
<glyph unicode="&#xb2;" horiz-adv-x="913" d="M137 571v39q0 51 14.5 101.5t49.5 100.5t96 104.5t154 115.5q96 61 140 111.5t44 120.5q0 72 -43 116.5t-125 44.5q-72 0 -124 -38.5t-95 -126.5l-98 55q109 221 321 221q135 0 211 -75t76 -193q0 -49 -12.5 -90t-42 -81t-76.5 -78t-117 -81q-111 -70 -168 -134.5 t-66 -119.5h486v-113h-625z" />
<glyph unicode="&#xb3;" horiz-adv-x="913" d="M115 750l90 65q53 -86 114.5 -118.5t131.5 -32.5q98 0 149 48t51 124q0 92 -61.5 140t-210.5 48h-53v98h59q131 0 189.5 40t58.5 118q0 63 -41 104t-133 41q-66 0 -119 -30.5t-100 -87.5l-84 69q59 74 135 117t172 43q78 0 133 -20.5t91 -54.5t53.5 -79t17.5 -92 q0 -78 -40 -133t-120 -82q96 -29 138 -88t42 -151q0 -61 -22.5 -112.5t-64.5 -89.5t-102.5 -59.5t-135.5 -21.5q-104 0 -191.5 49.5t-146.5 147.5z" />
<glyph unicode="&#xb4;" horiz-adv-x="1024" d="M346 1194l195 319h186l-289 -319h-92z" />
<glyph unicode="&#xb5;" horiz-adv-x="1200" d="M164 -410v1489h141v-755q0 -115 51.5 -170.5t163.5 -55.5q104 0 194.5 50.5t182.5 136.5v794h141v-1079h-141v176q-82 -78 -177 -134t-210 -60q-66 -2 -118 13t-87 58v-463h-141z" />
<glyph unicode="&#x3bc;" horiz-adv-x="1200" d="M164 -410v1489h141v-755q0 -115 51.5 -170.5t163.5 -55.5q104 0 194.5 50.5t182.5 136.5v794h141v-1079h-141v176q-82 -78 -177 -134t-210 -60q-66 -2 -118 13t-87 58v-463h-141z" />
<glyph unicode="&#xb6;" horiz-adv-x="1267" d="M127 1100q0 90 30.5 165.5t90 131t147.5 87.5t201 32h483v-1926h-121v1805h-213v-1805h-120v1100q-242 4 -370 106.5t-128 303.5z" />
<glyph unicode="&#xb7;" horiz-adv-x="550" d="M186 555v193h181v-193h-181z" />
<glyph unicode="&#x2219;" horiz-adv-x="550" d="M186 555v193h181v-193h-181z" />
<glyph unicode="&#xb8;" horiz-adv-x="1024" d="M260 -324l37 60q92 -61 201 -62q82 0 117.5 25t35.5 72q0 74 -86 73q-35 0 -59.5 -12t-46.5 -29l-60 27l54 170h86l-33 -111q23 14 49.5 22.5t62.5 8.5q57 0 100.5 -35t43.5 -104q0 -47 -19.5 -82t-53.5 -56.5t-79 -31.5t-96 -10q-70 0 -135.5 20t-118.5 55z" />
<glyph unicode="&#xb9;" horiz-adv-x="827" d="M199 569v111h172v696q-35 -16 -79 -23t-91 -7v110q127 2 184 60h111v-836h153v-111h-450z" />
<glyph unicode="&#xba;" horiz-adv-x="878" d="M90 1149q0 96 27.5 170t76 123t112 74.5t132.5 25.5q72 0 135.5 -25.5t111.5 -74.5t75.5 -123t27.5 -170q0 -94 -27.5 -168t-75.5 -124t-111.5 -75.5t-135.5 -25.5q-70 0 -133 25.5t-111.5 75.5t-76 124t-27.5 168zM203 1149q0 -59 14 -113.5t44 -96.5t74 -66.5 t103 -24.5q57 0 101.5 23.5t75 63.5t46 95t15.5 119q0 59 -15.5 114.5t-45 96.5t-73.5 65.5t-104 24.5q-55 0 -99 -23.5t-73.5 -63.5t-46 -95.5t-16.5 -118.5z" />
<glyph unicode="&#xbb;" horiz-adv-x="1069" d="M119 0l299 541l-299 538h147l305 -538l-305 -541h-147zM526 0l297 541l-297 538h146l305 -538l-305 -541h-146z" />
<glyph unicode="&#xbc;" horiz-adv-x="1914" d="M199 569v111h172v696q-35 -16 -79 -23t-91 -7v110q127 2 184 60h111v-836h153v-111h-450zM463 0l907 1516h133l-907 -1516h-133zM1073 227v82l424 639h137v-610h154v-111h-154v-227h-125v227h-436zM1221 338h290v440z" />
<glyph unicode="&#xbd;" horiz-adv-x="1994" d="M199 569v111h172v696q-35 -16 -79 -23t-91 -7v110q127 2 184 60h111v-836h153v-111h-450zM463 0l907 1516h133l-907 -1516h-133zM1217 0v41q0 51 14 100t49 100.5t95.5 105.5t154.5 114q96 61 139 111.5t43 121.5q0 72 -42 116t-126 44q-72 0 -123 -39t-96 -127l-98 55 q109 221 321 222q135 0 211 -74t76 -195q0 -49 -12.5 -90t-42 -81t-76.5 -77.5t-117 -80.5q-111 -70 -167 -134.5t-66 -119.5h487v-113h-624z" />
<glyph unicode="&#xbe;" horiz-adv-x="1970" d="M115 750l90 65q53 -86 114.5 -118.5t131.5 -32.5q98 0 149 48t51 124q0 92 -61.5 140t-210.5 48h-53v98h59q131 0 189.5 40t58.5 118q0 63 -41 104t-133 41q-66 0 -119 -30.5t-100 -87.5l-84 69q59 74 135 117t172 43q78 0 133 -20.5t91 -54.5t53.5 -79t17.5 -92 q0 -78 -40 -133t-120 -82q96 -29 138 -88t42 -151q0 -61 -22.5 -112.5t-64.5 -89.5t-102.5 -59.5t-135.5 -21.5q-104 0 -191.5 49.5t-146.5 147.5zM520 0l905 1516h134l-908 -1516h-131zM1128 227v82l424 639h138v-610h153v-111h-153v-227h-125v227h-437zM1274 338h293v440z " />
<glyph unicode="&#xbf;" horiz-adv-x="1103" d="M106 340q0 76 20.5 132t55.5 100t83 79t104 68q63 37 100 70.5t55.5 74.5t22.5 98.5t4 141.5h115q6 -61 6 -135q0 -109 -41 -180.5t-144 -131.5q-61 -37 -106 -68.5t-73.5 -65.5t-43 -75.5t-14.5 -99.5q0 -117 81 -182.5t224 -65.5q131 0 216 57.5t151 149.5l102 -78 q-43 -55 -90 -102t-105.5 -82t-127 -54.5t-154.5 -19.5q-100 0 -181 27t-138.5 76t-89.5 116.5t-32 149.5zM520 1325v191h178v-191h-178z" />
<glyph unicode="&#xc0;" horiz-adv-x="1378" d="M74 0l536 1522h158l537 -1522h-152l-162 467h-614l-162 -467h-141zM358 1929h187l194 -319h-92zM422 596h524l-260 754h-4z" />
<glyph unicode="&#xc1;" horiz-adv-x="1378" d="M74 0l536 1522h158l537 -1522h-152l-162 467h-614l-162 -467h-141zM422 596h524l-260 754h-4zM641 1610l195 319h186l-289 -319h-92z" />
<glyph unicode="&#xc2;" horiz-adv-x="1378" d="M74 0l536 1522h158l537 -1522h-152l-162 467h-614l-162 -467h-141zM371 1604l264 325h106l265 -325h-91l-229 200l-229 -200h-86zM422 596h524l-260 754h-4z" />
<glyph unicode="&#xc3;" horiz-adv-x="1378" d="M74 0l536 1522h158l537 -1522h-152l-162 467h-614l-162 -467h-141zM367 1608q0 117 43 171t129 54q43 0 84 -17.5t78.5 -39t73.5 -40t67 -18.5q45 0 64.5 25.5t19.5 85.5h90q0 -225 -174 -225q-43 0 -84 18t-79 39.5t-73 39t-65 17.5q-47 0 -65.5 -25.5t-18.5 -84.5h-90z M422 596h524l-260 754h-4z" />
<glyph unicode="&#xc4;" horiz-adv-x="1378" d="M74 0l536 1522h158l537 -1522h-152l-162 467h-614l-162 -467h-141zM422 596h524l-260 754h-4zM428 1610v168h158v-168h-158zM788 1610v168h158v-168h-158z" />
<glyph unicode="&#xc5;" horiz-adv-x="1378" d="M74 0l522 1479q-45 23 -69.5 65.5t-24.5 95.5q0 80 52 133.5t134 53.5q80 0 133 -53.5t53 -133.5q0 -53 -25.5 -95t-66.5 -64l523 -1481h-152l-162 467h-614l-162 -467h-141zM422 596h524l-260 754h-4zM578 1640q0 -51 31.5 -82.5t78.5 -31.5t78 31.5t31 82.5 q0 49 -31 82t-78 33t-78.5 -33t-31.5 -82z" />
<glyph unicode="&#xc6;" horiz-adv-x="2039" d="M55 0l863 1516h985v-136h-760v-514h567v-131h-567v-602h803v-133h-949v485h-520l-274 -485h-148zM553 614h444v785h-2z" />
<glyph unicode="&#xc7;" horiz-adv-x="1431" d="M121 764q0 172 45 315.5t128 247t199.5 160.5t258.5 57q115 0 205 -32.5t157.5 -93t113.5 -146.5t72 -191l-139 -34q-51 180 -144 275t-267 95q-111 0 -200 -47t-151.5 -132t-97.5 -205t-35 -265q0 -158 35 -283t98.5 -211t153.5 -132t201 -46q170 0 276.5 99.5 t155.5 291.5l139 -30q-53 -223 -194.5 -351.5t-362.5 -134.5l-25 -82q23 14 49.5 22.5t61.5 8.5q59 0 102 -35t43 -104q0 -47 -19 -82t-53 -56.5t-79 -31.5t-96 -10q-70 0 -135.5 20.5t-118.5 54.5l37 60q92 -61 200 -62q80 0 116 25t36 72q0 74 -84 73q-35 0 -60.5 -12 t-48.5 -29l-57 27l45 143q-129 14 -232.5 76t-176 165t-112.5 242.5t-40 307.5z" />
<glyph unicode="&#xc8;" horiz-adv-x="1236" d="M195 0v1516h905v-136h-760v-514h567v-131h-567v-602h803v-133h-948zM356 1929h187l194 -319h-92z" />
<glyph unicode="&#xc9;" horiz-adv-x="1236" d="M195 0v1516h905v-136h-760v-514h567v-131h-567v-602h803v-133h-948zM559 1610l195 319h186l-289 -319h-92z" />
<glyph unicode="&#xca;" horiz-adv-x="1236" d="M195 0v1516h905v-136h-760v-514h567v-131h-567v-602h803v-133h-948zM330 1604l264 325h106l265 -325h-91l-229 200l-229 -200h-86z" />
<glyph unicode="&#xcb;" horiz-adv-x="1236" d="M195 0v1516h905v-136h-760v-514h567v-131h-567v-602h803v-133h-948zM397 1610v168h158v-168h-158zM758 1610v168h157v-168h-157z" />
<glyph unicode="&#xcc;" horiz-adv-x="575" d="M-29 1929h187l194 -319h-92zM215 0v1516h145v-1516h-145z" />
<glyph unicode="&#xcd;" horiz-adv-x="575" d="M215 0v1516h145v-1516h-145zM246 1610l194 319h187l-289 -319h-92z" />
<glyph unicode="&#xce;" horiz-adv-x="575" d="M-29 1604l265 325h106l264 -325h-90l-229 200l-230 -200h-86zM215 0v1516h145v-1516h-145z" />
<glyph unicode="&#xcf;" horiz-adv-x="575" d="M29 1610v168h157v-168h-157zM215 0v1516h145v-1516h-145zM389 1610v168h158v-168h-158z" />
<glyph unicode="&#xd0;" horiz-adv-x="1452" d="M25 737v123h170v656h383q373 0 563 -189.5t190 -568.5q0 -375 -192.5 -566.5t-560.5 -191.5h-383v737h-170zM340 131h260q281 0 433.5 150.5t152.5 478.5q0 322 -153.5 471t-436.5 149h-256v-520h328v-123h-328v-606z" />
<glyph unicode="&#xd1;" horiz-adv-x="1521" d="M195 0v1516h155l836 -1250h4v1250h137v-1516h-129l-862 1288h-4v-1288h-137zM457 1608q0 117 43 171t129 54q43 0 84 -17.5t78.5 -39t73.5 -40t67 -18.5q45 0 64.5 25.5t19.5 85.5h90q0 -225 -174 -225q-43 0 -84 18t-79 39.5t-72.5 39t-65.5 17.5q-47 0 -65.5 -25.5 t-18.5 -84.5h-90z" />
<glyph unicode="&#xd2;" d="M121 758q0 178 48 323.5t133 248t202 158.5t256 56t256 -56t202 -158.5t133 -248t48 -323.5t-48 -323.5t-133 -248t-202 -159t-256 -56.5t-256 56.5t-202 159t-133 248t-48 323.5zM266 758q0 -154 37 -276t102.5 -207t156.5 -129t198 -44q109 0 199 44t155.5 129t102 207 t36.5 276t-36.5 275.5t-102 205.5t-156 128t-198.5 44q-106 0 -197.5 -44t-157 -128t-102.5 -205.5t-37 -275.5zM444 1929h187l194 -319h-92z" />
<glyph unicode="&#xd3;" d="M121 758q0 178 48 323.5t133 248t202 158.5t256 56t256 -56t202 -158.5t133 -248t48 -323.5t-48 -323.5t-133 -248t-202 -159t-256 -56.5t-256 56.5t-202 159t-133 248t-48 323.5zM266 758q0 -154 37 -276t102.5 -207t156.5 -129t198 -44q109 0 199 44t155.5 129t102 207 t36.5 276t-36.5 275.5t-102 205.5t-156 128t-198.5 44q-106 0 -197.5 -44t-157 -128t-102.5 -205.5t-37 -275.5zM686 1610l195 319h186l-289 -319h-92z" />
<glyph unicode="&#xd4;" d="M121 758q0 178 48 323.5t133 248t202 158.5t256 56t256 -56t202 -158.5t133 -248t48 -323.5t-48 -323.5t-133 -248t-202 -159t-256 -56.5t-256 56.5t-202 159t-133 248t-48 323.5zM266 758q0 -154 37 -276t102.5 -207t156.5 -129t198 -44q109 0 199 44t155.5 129t102 207 t36.5 276t-36.5 275.5t-102 205.5t-156 128t-198.5 44q-106 0 -197.5 -44t-157 -128t-102.5 -205.5t-37 -275.5zM440 1604l265 325h106l264 -325h-90l-229 200l-230 -200h-86z" />
<glyph unicode="&#xd5;" d="M121 758q0 178 48 323.5t133 248t202 158.5t256 56t256 -56t202 -158.5t133 -248t48 -323.5t-48 -323.5t-133 -248t-202 -159t-256 -56.5t-256 56.5t-202 159t-133 248t-48 323.5zM266 758q0 -154 37 -276t102.5 -207t156.5 -129t198 -44q109 0 199 44t155.5 129t102 207 t36.5 276t-36.5 275.5t-102 205.5t-156 128t-198.5 44q-106 0 -197.5 -44t-157 -128t-102.5 -205.5t-37 -275.5zM434 1608q0 117 43 171t129 54q43 0 84 -17.5t79 -39l74 -40t66 -18.5q45 0 64.5 25.5t19.5 85.5h90q0 -225 -174 -225q-43 0 -84 18t-78.5 39.5t-72.5 39 t-66 17.5q-47 0 -65.5 -25.5t-18.5 -84.5h-90z" />
<glyph unicode="&#xd6;" d="M121 758q0 178 48 323.5t133 248t202 158.5t256 56t256 -56t202 -158.5t133 -248t48 -323.5t-48 -323.5t-133 -248t-202 -159t-256 -56.5t-256 56.5t-202 159t-133 248t-48 323.5zM266 758q0 -154 37 -276t102.5 -207t156.5 -129t198 -44q109 0 199 44t155.5 129t102 207 t36.5 276t-36.5 275.5t-102 205.5t-156 128t-198.5 44q-106 0 -197.5 -44t-157 -128t-102.5 -205.5t-37 -275.5zM500 1610v168h157v-168h-157zM860 1610v168h158v-168h-158z" />
<glyph unicode="&#xd7;" horiz-adv-x="1302" d="M213 297l352 350l-352 354l84 84l352 -354l352 354l86 -84l-354 -352l354 -352l-83 -84l-355 352l-352 -354z" />
<glyph unicode="&#xd8;" d="M121 758q0 178 48 323.5t133 248t202 158.5t256 56q121 0 224 -43t185 -121l134 172l86 -61l-148 -191q76 -102 117 -239t41 -303q0 -178 -48 -323.5t-133 -248t-202 -159t-256 -56.5q-121 0 -224.5 43t-185.5 121l-133 -172l-86 62l145 190q-74 102 -114.5 239.5 t-40.5 303.5zM264 758q0 -135 27.5 -242.5t79.5 -189.5l719 944q-135 145 -330 145q-106 0 -197.5 -44t-158 -129t-103.5 -206.5t-37 -277.5zM430 246q129 -145 330 -146q109 0 199 45t155.5 129t102 206t36.5 278q0 133 -26.5 240.5t-75.5 189.5z" />
<glyph unicode="&#xd9;" horiz-adv-x="1464" d="M180 512v1004h146v-979q0 -92 23.5 -172t73.5 -137.5t127 -90.5t183 -33q104 0 181 32t127.5 88.5t74 135t23.5 172.5v984h145v-1000q0 -113 -35 -212t-103.5 -173t-172 -116t-242.5 -42t-242.5 42t-172 115t-102.5 171t-34 211zM430 1929h186l195 -319h-92z" />
<glyph unicode="&#xda;" horiz-adv-x="1464" d="M180 512v1004h146v-979q0 -92 23.5 -172t73.5 -137.5t127 -90.5t183 -33q104 0 181 32t127.5 88.5t74 135t23.5 172.5v984h145v-1000q0 -113 -35 -212t-103.5 -173t-172 -116t-242.5 -42t-242.5 42t-172 115t-102.5 171t-34 211zM641 1610l195 319h186l-289 -319h-92z " />
<glyph unicode="&#xdb;" horiz-adv-x="1464" d="M180 512v1004h146v-979q0 -92 23.5 -172t73.5 -137.5t127 -90.5t183 -33q104 0 181 32t127.5 88.5t74 135t23.5 172.5v984h145v-1000q0 -113 -35 -212t-103.5 -173t-172 -116t-242.5 -42t-242.5 42t-172 115t-102.5 171t-34 211zM414 1604l264 325h106l265 -325h-91 l-229 200l-229 -200h-86z" />
<glyph unicode="&#xdc;" horiz-adv-x="1464" d="M180 512v1004h146v-979q0 -92 23.5 -172t73.5 -137.5t127 -90.5t183 -33q104 0 181 32t127.5 88.5t74 135t23.5 172.5v984h145v-1000q0 -113 -35 -212t-103.5 -173t-172 -116t-242.5 -42t-242.5 42t-172 115t-102.5 171t-34 211zM471 1610v168h158v-168h-158zM831 1610 v168h158v-168h-158z" />
<glyph unicode="&#xdd;" horiz-adv-x="1265" d="M51 1516h158l426 -723l424 723h155l-509 -848v-668h-146v668zM469 1628l195 320h186l-289 -320h-92z" />
<glyph unicode="&#xde;" horiz-adv-x="1325" d="M195 0v1516h145v-287h356q248 -2 390.5 -104.5t142.5 -311.5q0 -115 -41 -196.5t-112.5 -134t-172 -77t-221.5 -24.5h-342v-381h-145zM340 512h350q188 0 289.5 66.5t101.5 230.5q0 154 -100 219.5t-293 65.5h-348v-582z" />
<glyph unicode="&#xdf;" horiz-adv-x="1255" d="M164 0v1057q0 221 116.5 340t321.5 119q188 0 302 -91.5t114 -259.5q0 -117 -68.5 -198.5t-193.5 -116.5q80 -12 152.5 -41t127 -80t86 -126t31.5 -177t-27.5 -185t-79 -141.5t-125 -90.5t-165.5 -32q-109 0 -185.5 34t-124.5 85l84 88q45 -43 97.5 -66.5t130.5 -23.5 q117 0 188.5 86t71.5 240q0 96 -33 163.5t-94.5 111.5t-151.5 65.5t-204 25.5v109q184 4 266 79t82 185q0 115 -77 175.5t-208 60.5q-141 0 -217 -83t-76 -247v-1065h-141z" />
<glyph unicode="&#xe0;" horiz-adv-x="1120" d="M98 252q0 80 37 148.5t123 126t226.5 102.5t344.5 76v55q0 113 -56 167t-163 54q-129 0 -223 -48t-180 -122l-76 88q98 90 215 145.5t277 55.5q182 0 264 -91t82 -253v-490q0 -98 7 -161.5t23 -104.5h-145q-10 35 -17.5 70.5t-7.5 83.5q-94 -86 -198.5 -129t-227.5 -43 q-145 0 -225 71.5t-80 198.5zM238 270q0 -86 52 -129t144 -43q115 0 213 45t182 125v336q-174 -29 -287.5 -64.5t-181 -77.5t-95 -90.5t-27.5 -101.5zM283 1513h186l195 -319h-93z" />
<glyph unicode="&#xe1;" horiz-adv-x="1120" d="M98 252q0 80 37 148.5t123 126t226.5 102.5t344.5 76v55q0 113 -56 167t-163 54q-129 0 -223 -48t-180 -122l-76 88q98 90 215 145.5t277 55.5q182 0 264 -91t82 -253v-490q0 -98 7 -161.5t23 -104.5h-145q-10 35 -17.5 70.5t-7.5 83.5q-94 -86 -198.5 -129t-227.5 -43 q-145 0 -225 71.5t-80 198.5zM238 270q0 -86 52 -129t144 -43q115 0 213 45t182 125v336q-174 -29 -287.5 -64.5t-181 -77.5t-95 -90.5t-27.5 -101.5zM500 1194l194 319h187l-289 -319h-92z" />
<glyph unicode="&#xe2;" horiz-adv-x="1120" d="M98 252q0 80 37 148.5t123 126t226.5 102.5t344.5 76v55q0 113 -56 167t-163 54q-129 0 -223 -48t-180 -122l-76 88q98 90 215 145.5t277 55.5q182 0 264 -91t82 -253v-490q0 -98 7 -161.5t23 -104.5h-145q-10 35 -17.5 70.5t-7.5 83.5q-94 -86 -198.5 -129t-227.5 -43 q-145 0 -225 71.5t-80 198.5zM238 270q0 -86 52 -129t144 -43q115 0 213 45t182 125v336q-174 -29 -287.5 -64.5t-181 -77.5t-95 -90.5t-27.5 -101.5zM258 1188l264 325h107l264 -325h-90l-230 201l-229 -201h-86z" />
<glyph unicode="&#xe3;" horiz-adv-x="1120" d="M98 252q0 80 37 148.5t123 126t226.5 102.5t344.5 76v55q0 113 -56 167t-163 54q-129 0 -223 -48t-180 -122l-76 88q98 90 215 145.5t277 55.5q182 0 264 -91t82 -253v-490q0 -98 7 -161.5t23 -104.5h-145q-10 35 -17.5 70.5t-7.5 83.5q-94 -86 -198.5 -129t-227.5 -43 q-145 0 -225 71.5t-80 198.5zM238 270q0 -86 52 -129t144 -43q115 0 213 45t182 125v336q-174 -29 -287.5 -64.5t-181 -77.5t-95 -90.5t-27.5 -101.5zM246 1192q0 117 43 171t129 54q43 0 84 -17.5t78.5 -39t73.5 -39.5t67 -18q45 0 64.5 25.5t19.5 84.5h90 q0 -225 -174 -225q-43 0 -84 18.5t-79 40t-72.5 39t-65.5 17.5q-47 0 -65.5 -26t-18.5 -85h-90z" />
<glyph unicode="&#xe4;" horiz-adv-x="1120" d="M98 252q0 80 37 148.5t123 126t226.5 102.5t344.5 76v55q0 113 -56 167t-163 54q-129 0 -223 -48t-180 -122l-76 88q98 90 215 145.5t277 55.5q182 0 264 -91t82 -253v-490q0 -98 7 -161.5t23 -104.5h-145q-10 35 -17.5 70.5t-7.5 83.5q-94 -86 -198.5 -129t-227.5 -43 q-145 0 -225 71.5t-80 198.5zM238 270q0 -86 52 -129t144 -43q115 0 213 45t182 125v336q-174 -29 -287.5 -64.5t-181 -77.5t-95 -90.5t-27.5 -101.5zM328 1194v168h157v-168h-157zM688 1194v168h158v-168h-158z" />
<glyph unicode="&#xe5;" horiz-adv-x="1120" d="M98 252q0 80 37 148.5t123 126t226.5 102.5t344.5 76v55q0 113 -56 167t-163 54q-129 0 -223 -48t-180 -122l-76 88q98 90 215 145.5t277 55.5q182 0 264 -91t82 -253v-490q0 -98 7 -161.5t23 -104.5h-145q-10 35 -17.5 70.5t-7.5 83.5q-94 -86 -198.5 -129t-227.5 -43 q-145 0 -225 71.5t-80 198.5zM238 270q0 -86 52 -129t144 -43q115 0 213 45t182 125v336q-174 -29 -287.5 -64.5t-181 -77.5t-95 -90.5t-27.5 -101.5zM403 1366q0 80 52.5 133t134.5 53t134 -53t52 -133t-52 -133t-134 -53t-134.5 53t-52.5 133zM481 1366q0 -51 31 -83 t78 -32t77.5 32t30.5 83q0 49 -30.5 82t-77.5 33t-78 -33t-31 -82z" />
<glyph unicode="&#xe6;" horiz-adv-x="1830" d="M98 248q0 80 37 149.5t121 127t224.5 103.5t344.5 77v55q0 113 -55 167t-160 54q-129 0 -224 -48t-179 -122l-76 88q98 90 214 145.5t276 55.5q143 0 213.5 -61.5t93.5 -159.5q51 96 145 158.5t215 62.5q94 0 175 -36t139.5 -106.5t92.5 -175t34 -243.5v-23h-771 q0 -100 27 -179t73 -132t108.5 -81t131.5 -28q121 0 196 50.5t136 146.5l90 -70q-72 -115 -175 -180.5t-257 -65.5q-121 0 -224 58.5t-169 175.5q-106 -109 -225 -171.5t-267 -62.5q-145 0 -225 71t-80 200zM238 264q0 -84 52 -127t144 -43q225 0 424 207q-35 98 -35 223 q0 23 1 43.5t1 36.5q-172 -29 -285.5 -65.5t-181 -79.5t-94 -92.5t-26.5 -102.5zM961 625h628q-6 78 -26.5 142t-58.5 112.5t-92 75t-126 26.5q-57 0 -111.5 -21.5t-98.5 -65.5t-74.5 -110.5t-40.5 -158.5z" />
<glyph unicode="&#xe7;" horiz-adv-x="1087" d="M102 539q0 145 41 250.5t108.5 175t155 102.5t177.5 33q86 0 152.5 -23.5t115.5 -64.5t85 -94.5t60 -112.5l-120 -53q-47 115 -115 174t-182 59q-59 0 -120 -23.5t-109 -77t-77.5 -138t-29.5 -205.5q0 -106 25.5 -189.5t69.5 -141.5t105.5 -89t130.5 -31 q113 0 182.5 58.5t127.5 179.5l114 -49q-63 -133 -159.5 -215t-253.5 -84l-27 -91q23 14 49.5 22.5t61.5 8.5q59 0 102 -35t43 -104q0 -47 -19.5 -82t-53 -56.5t-79 -31.5t-96.5 -10q-70 0 -135 20.5t-119 54.5l37 60q92 -61 201 -62q80 0 115.5 25t35.5 72q0 74 -84 73 q-35 0 -60.5 -12t-47.5 -29l-57 27l47 154q-82 12 -155 55t-126 113.5t-85 168t-32 218.5z" />
<glyph unicode="&#xe8;" horiz-adv-x="1118" d="M102 541q0 143 42 248.5t110 174t151.5 102.5t169.5 34q94 0 175 -36t139.5 -106.5t92.5 -175t34 -243.5v-27h-772q0 -100 27.5 -177t73.5 -130t107.5 -81t131.5 -28q121 0 197.5 51.5t138.5 145.5l88 -70q-72 -115 -175.5 -180.5t-257.5 -65.5q-94 0 -180 36t-150.5 108 t-103.5 177.5t-39 242.5zM246 625h633q-6 78 -27 142t-58.5 112.5t-93 75t-127.5 26.5q-57 0 -112 -21.5t-99.5 -65.5t-75 -110.5t-40.5 -158.5zM252 1513h186l195 -319h-92z" />
<glyph unicode="&#xe9;" horiz-adv-x="1118" d="M102 541q0 143 42 248.5t110 174t151.5 102.5t169.5 34q94 0 175 -36t139.5 -106.5t92.5 -175t34 -243.5v-27h-772q0 -100 27.5 -177t73.5 -130t107.5 -81t131.5 -28q121 0 197.5 51.5t138.5 145.5l88 -70q-72 -115 -175.5 -180.5t-257.5 -65.5q-94 0 -180 36t-150.5 108 t-103.5 177.5t-39 242.5zM246 625h633q-6 78 -27 142t-58.5 112.5t-93 75t-127.5 26.5q-57 0 -112 -21.5t-99.5 -65.5t-75 -110.5t-40.5 -158.5zM502 1194l194 319h187l-289 -319h-92z" />
<glyph unicode="&#xea;" horiz-adv-x="1118" d="M102 541q0 143 42 248.5t110 174t151.5 102.5t169.5 34q94 0 175 -36t139.5 -106.5t92.5 -175t34 -243.5v-27h-772q0 -100 27.5 -177t73.5 -130t107.5 -81t131.5 -28q121 0 197.5 51.5t138.5 145.5l88 -70q-72 -115 -175.5 -180.5t-257.5 -65.5q-94 0 -180 36t-150.5 108 t-103.5 177.5t-39 242.5zM246 625h633q-6 78 -27 142t-58.5 112.5t-93 75t-127.5 26.5q-57 0 -112 -21.5t-99.5 -65.5t-75 -110.5t-40.5 -158.5zM258 1188l264 325h107l264 -325h-90l-230 201l-229 -201h-86z" />
<glyph unicode="&#xeb;" horiz-adv-x="1118" d="M102 541q0 143 42 248.5t110 174t151.5 102.5t169.5 34q94 0 175 -36t139.5 -106.5t92.5 -175t34 -243.5v-27h-772q0 -100 27.5 -177t73.5 -130t107.5 -81t131.5 -28q121 0 197.5 51.5t138.5 145.5l88 -70q-72 -115 -175.5 -180.5t-257.5 -65.5q-94 0 -180 36t-150.5 108 t-103.5 177.5t-39 242.5zM246 625h633q-6 78 -27 142t-58.5 112.5t-93 75t-127.5 26.5q-57 0 -112 -21.5t-99.5 -65.5t-75 -110.5t-40.5 -158.5zM307 1194v168h158v-168h-158zM668 1194v168h157v-168h-157z" />
<glyph unicode="&#xec;" horiz-adv-x="491" d="M-68 1513h187l194 -319h-92zM176 0v1079h141v-1079h-141z" />
<glyph unicode="&#xed;" horiz-adv-x="491" d="M176 0v1079h141v-1079h-141zM211 1194l195 319h186l-289 -319h-92z" />
<glyph unicode="&#xee;" horiz-adv-x="491" d="M-72 1188l265 325h106l264 -325h-90l-229 201l-230 -201h-86zM176 0v1079h141v-1079h-141z" />
<glyph unicode="&#xef;" horiz-adv-x="491" d="M-14 1194v168h157v-168h-157zM176 0v1079h141v-1079h-141zM346 1194v168h158v-168h-158z" />
<glyph unicode="&#xf0;" horiz-adv-x="1181" d="M102 528q0 129 37 228.5t100.5 168t150.5 103.5t185 35q104 0 195.5 -52.5t147.5 -136.5q-23 92 -67 184.5t-122 178.5l-223 -84l-43 98l188 70q-35 33 -73.5 60.5t-83.5 56.5l69 92q57 -33 110.5 -71t100.5 -83l205 78l43 -98l-170 -66q104 -129 165.5 -310t61.5 -443 q0 -129 -37.5 -232.5t-103.5 -176.5t-155 -112t-191 -39q-104 0 -193.5 38t-155 110t-103.5 174t-38 229zM244 530q0 -88 22.5 -167.5t66.5 -138t108.5 -93.5t150.5 -35q80 0 144.5 32t108.5 89t68.5 137t24.5 176q0 90 -23.5 166t-67.5 131.5t-108.5 87t-146.5 31.5 q-80 0 -144.5 -29.5t-109.5 -84t-69.5 -131.5t-24.5 -171z" />
<glyph unicode="&#xf1;" horiz-adv-x="1189" d="M164 0v1079h141v-170q78 78 180.5 134.5t231.5 56.5q160 0 240.5 -84t80.5 -236v-780h-141v754q0 115 -52 170t-163 55q-104 0 -194.5 -50t-182.5 -138v-791h-141zM287 1192q0 117 43 171t129 54q43 0 84 -17.5t78.5 -39t73.5 -39.5t67 -18q45 0 64.5 25.5t19.5 84.5h90 q0 -225 -174 -225q-43 0 -84 18.5t-79 40t-72.5 39t-65.5 17.5q-47 0 -65.5 -26t-18.5 -85h-90z" />
<glyph unicode="&#xf2;" horiz-adv-x="1181" d="M102 539q0 135 39 239.5t105.5 176t156 108.5t189.5 37q98 0 187 -37t155.5 -108.5t105.5 -176t39 -239.5t-39 -239.5t-105.5 -176.5t-155.5 -109t-187 -37t-187.5 37t-157 109t-106.5 176.5t-39 239.5zM244 541q0 -90 21.5 -170t65.5 -140.5t109.5 -96.5t151.5 -36 q82 0 146.5 33t108.5 91.5t67.5 139t23.5 179.5q0 88 -22.5 167.5t-65.5 139t-107.5 95.5t-150.5 36q-82 0 -146.5 -33t-109.5 -91t-68.5 -138t-23.5 -176zM276 1513h187l194 -319h-92z" />
<glyph unicode="&#xf3;" horiz-adv-x="1181" d="M102 539q0 135 39 239.5t105.5 176t156 108.5t189.5 37q98 0 187 -37t155.5 -108.5t105.5 -176t39 -239.5t-39 -239.5t-105.5 -176.5t-155.5 -109t-187 -37t-187.5 37t-157 109t-106.5 176.5t-39 239.5zM244 541q0 -90 21.5 -170t65.5 -140.5t109.5 -96.5t151.5 -36 q82 0 146.5 33t108.5 91.5t67.5 139t23.5 179.5q0 88 -22.5 167.5t-65.5 139t-107.5 95.5t-150.5 36q-82 0 -146.5 -33t-109.5 -91t-68.5 -138t-23.5 -176zM520 1194l195 319h186l-289 -319h-92z" />
<glyph unicode="&#xf4;" horiz-adv-x="1181" d="M102 539q0 135 39 239.5t105.5 176t156 108.5t189.5 37q98 0 187 -37t155.5 -108.5t105.5 -176t39 -239.5t-39 -239.5t-105.5 -176.5t-155.5 -109t-187 -37t-187.5 37t-157 109t-106.5 176.5t-39 239.5zM244 541q0 -90 21.5 -170t65.5 -140.5t109.5 -96.5t151.5 -36 q82 0 146.5 33t108.5 91.5t67.5 139t23.5 179.5q0 88 -22.5 167.5t-65.5 139t-107.5 95.5t-150.5 36q-82 0 -146.5 -33t-109.5 -91t-68.5 -138t-23.5 -176zM274 1188l265 325h106l264 -325h-90l-229 201l-230 -201h-86z" />
<glyph unicode="&#xf5;" horiz-adv-x="1181" d="M102 539q0 135 39 239.5t105.5 176t156 108.5t189.5 37q98 0 187 -37t155.5 -108.5t105.5 -176t39 -239.5t-39 -239.5t-105.5 -176.5t-155.5 -109t-187 -37t-187.5 37t-157 109t-106.5 176.5t-39 239.5zM244 541q0 -90 21.5 -170t65.5 -140.5t109.5 -96.5t151.5 -36 q82 0 146.5 33t108.5 91.5t67.5 139t23.5 179.5q0 88 -22.5 167.5t-65.5 139t-107.5 95.5t-150.5 36q-82 0 -146.5 -33t-109.5 -91t-68.5 -138t-23.5 -176zM270 1192q0 117 43 171t129 54q43 0 84 -17.5t79 -39t74 -39.5t66 -18q45 0 64.5 25.5t19.5 84.5h91 q0 -225 -175 -225q-43 0 -83.5 18.5t-78.5 40t-73 39t-66 17.5q-47 0 -65.5 -26t-18.5 -85h-90z" />
<glyph unicode="&#xf6;" horiz-adv-x="1181" d="M102 539q0 135 39 239.5t105.5 176t156 108.5t189.5 37q98 0 187 -37t155.5 -108.5t105.5 -176t39 -239.5t-39 -239.5t-105.5 -176.5t-155.5 -109t-187 -37t-187.5 37t-157 109t-106.5 176.5t-39 239.5zM244 541q0 -90 21.5 -170t65.5 -140.5t109.5 -96.5t151.5 -36 q82 0 146.5 33t108.5 91.5t67.5 139t23.5 179.5q0 88 -22.5 167.5t-65.5 139t-107.5 95.5t-150.5 36q-82 0 -146.5 -33t-109.5 -91t-68.5 -138t-23.5 -176zM330 1194v168h157v-168h-157zM690 1194v168h158v-168h-158z" />
<glyph unicode="&#xf7;" horiz-adv-x="1302" d="M135 612v123h1034v-123h-1034zM561 221v176h172v-176h-172zM561 948v176h172v-176h-172z" />
<glyph unicode="&#xf8;" horiz-adv-x="1181" d="M102 539q0 135 39 239.5t105.5 176t156 108.5t189.5 37q162 0 285 -92l102 139l80 -64l-109 -143q59 -72 94 -172t35 -229q0 -135 -39 -239.5t-105.5 -176.5t-155.5 -109t-187 -37q-80 0 -152.5 24t-132.5 69l-104 -138l-76 60l109 145q-63 72 -98.5 172.5t-35.5 229.5z M242 541q0 -86 19.5 -163t60.5 -136l481 663q-86 76 -211 76q-82 0 -147.5 -33t-110.5 -92t-68.5 -139t-23.5 -176zM381 172q84 -78 211 -78q82 0 146.5 33t109.5 92.5t68.5 141t23.5 180.5q0 82 -19.5 156.5t-58.5 133.5z" />
<glyph unicode="&#xf9;" horiz-adv-x="1189" d="M154 299v780h141v-755q0 -115 51 -170.5t164 -55.5q104 0 193.5 51.5t181.5 137.5v792h143v-1079h-143v170q-78 -78 -180.5 -135.5t-229.5 -57.5q-162 0 -241.5 85t-79.5 237zM285 1513h186l195 -319h-93z" />
<glyph unicode="&#xfa;" horiz-adv-x="1189" d="M154 299v780h141v-755q0 -115 51 -170.5t164 -55.5q104 0 193.5 51.5t181.5 137.5v792h143v-1079h-143v170q-78 -78 -180.5 -135.5t-229.5 -57.5q-162 0 -241.5 85t-79.5 237zM518 1194l195 319h186l-289 -319h-92z" />
<glyph unicode="&#xfb;" horiz-adv-x="1189" d="M154 299v780h141v-755q0 -115 51 -170.5t164 -55.5q104 0 193.5 51.5t181.5 137.5v792h143v-1079h-143v170q-78 -78 -180.5 -135.5t-229.5 -57.5q-162 0 -241.5 85t-79.5 237zM272 1188l265 325h106l264 -325h-90l-229 201l-230 -201h-86z" />
<glyph unicode="&#xfc;" horiz-adv-x="1189" d="M154 299v780h141v-755q0 -115 51 -170.5t164 -55.5q104 0 193.5 51.5t181.5 137.5v792h143v-1079h-143v170q-78 -78 -180.5 -135.5t-229.5 -57.5q-162 0 -241.5 85t-79.5 237zM334 1194v168h158v-168h-158zM694 1194v168h158v-168h-158z" />
<glyph unicode="&#xfd;" horiz-adv-x="1079" d="M23 -391l32 117q23 -6 60 -11.5t90 -5.5q88 0 137 40t84 126l45 119l-418 1085h152l336 -911h4l334 911h147l-465 -1204q-27 -72 -57.5 -126t-71.5 -90t-97 -54.5t-134 -18.5q-61 0 -103 6.5t-75 16.5zM375 1194l194 319h187l-289 -319h-92z" />
<glyph unicode="&#xfe;" horiz-adv-x="1214" d="M164 -410v1926h141v-590q66 70 152 122t209 52q92 0 174 -35t141 -103.5t94 -174t35 -246.5t-35 -247t-96 -174.5t-145 -103t-181 -34.5q-104 0 -190 46t-158 119v-557h-141zM305 276q80 -86 161 -131t175 -45q72 0 132.5 26t103.5 79t67.5 136t24.5 198 q0 113 -25.5 195.5t-71 137t-104.5 81t-127 26.5q-100 0 -179 -48t-157 -130v-525z" />
<glyph unicode="&#xff;" horiz-adv-x="1079" d="M23 -391l32 117q23 -6 60 -11.5t90 -5.5q88 0 137 40t84 126l45 119l-418 1085h152l336 -911h4l334 911h147l-465 -1204q-27 -72 -57.5 -126t-71.5 -90t-97 -54.5t-134 -18.5q-61 0 -103 6.5t-75 16.5zM283 1194v168h157v-168h-157zM643 1194v168h158v-168h-158z" />
<glyph unicode="&#x152;" horiz-adv-x="2291" d="M121 758q0 178 48 323.5t134 248t203 158.5t254 56q178 0 304 -88t196 -231v291h894v-136h-759v-514h567v-131h-567v-602h803v-133h-938v295q-70 -143 -196 -233.5t-304 -90.5q-137 0 -254 56.5t-203 159t-134 248t-48 323.5zM266 758q0 -154 37 -276t102.5 -207 t156.5 -129t198 -44q106 0 196.5 44t156 129t102 207t36.5 276t-36.5 275.5t-102 205.5t-156 128t-196.5 44t-197.5 -44t-157 -128t-102.5 -205.5t-37 -275.5z" />
<glyph unicode="&#x153;" horiz-adv-x="1937" d="M102 539q0 135 39 239.5t104.5 176t153.5 108.5t189 37q147 0 253.5 -79t157.5 -206q25 61 65 113.5t92 90.5t113.5 59.5t129.5 21.5q94 0 174 -36t138 -106.5t91 -175t33 -243.5v-23h-768q2 -100 28.5 -179t71.5 -132t106.5 -81t131.5 -28q121 0 195.5 51.5t136.5 145.5 l90 -70q-72 -115 -174.5 -180.5t-255.5 -65.5q-68 0 -129.5 20.5t-113.5 58.5t-92 90.5t-65 113.5q-53 -125 -157.5 -204t-251.5 -79q-98 0 -187.5 37t-155 109t-104.5 176.5t-39 239.5zM244 541q0 -90 21.5 -170t64.5 -140.5t107.5 -96.5t150.5 -36q82 0 145.5 33 t107.5 91.5t67.5 139t23.5 179.5q0 88 -21.5 167.5t-64.5 139t-107.5 95.5t-150.5 36q-82 0 -145.5 -33t-107.5 -91t-67.5 -138t-23.5 -176zM1071 625h625q-6 78 -26.5 142t-57.5 112.5t-91.5 75t-125.5 26.5q-57 0 -112.5 -21.5t-98.5 -65.5t-73 -110.5t-40 -158.5z" />
<glyph unicode="&#x178;" horiz-adv-x="1265" d="M51 1516h158l426 -723l424 723h155l-509 -848v-668h-146v668zM373 1610v168h157v-168h-157zM733 1610v168h158v-168h-158z" />
<glyph unicode="&#x2c6;" horiz-adv-x="1044" d="M205 1188l264 325h106l265 -325h-90l-230 201l-229 -201h-86z" />
<glyph unicode="&#x2dc;" horiz-adv-x="1032" d="M193 1192q0 117 43 171t129 54q43 0 83.5 -17.5t78.5 -39t74 -39.5t67 -18q45 0 64.5 25.5t19.5 84.5h90q0 -225 -174 -225q-43 0 -84 18.5t-79 40t-73 39t-65 17.5q-47 0 -65.5 -26t-18.5 -85h-90z" />
<glyph unicode="&#x2000;" horiz-adv-x="972" />
<glyph unicode="&#x2001;" horiz-adv-x="1947" />
<glyph unicode="&#x2002;" horiz-adv-x="972" />
<glyph unicode="&#x2003;" horiz-adv-x="1947" />
<glyph unicode="&#x2004;" horiz-adv-x="649" />
<glyph unicode="&#x2005;" horiz-adv-x="485" />
<glyph unicode="&#x2006;" horiz-adv-x="323" />
<glyph unicode="&#x2007;" horiz-adv-x="323" />
<glyph unicode="&#x2008;" horiz-adv-x="241" />
<glyph unicode="&#x2009;" horiz-adv-x="389" />
<glyph unicode="&#x200a;" horiz-adv-x="106" />
<glyph unicode="&#x2010;" horiz-adv-x="731" d="M135 582v123h461v-123h-461z" />
<glyph unicode="&#x2011;" horiz-adv-x="731" d="M135 582v123h461v-123h-461z" />
<glyph unicode="&#x2012;" horiz-adv-x="731" d="M135 582v123h461v-123h-461z" />
<glyph unicode="&#x2013;" horiz-adv-x="1316" d="M137 578v129h1043v-129h-1043z" />
<glyph unicode="&#x2014;" horiz-adv-x="1892" d="M137 578v129h1618v-129h-1618z" />
<glyph unicode="&#x2018;" horiz-adv-x="548" d="M186 1116v176l95 224h65l-49 -207h65v-193h-176z" />
<glyph unicode="&#x2019;" horiz-adv-x="548" d="M186 1323v193h176v-179l-94 -221h-65l49 207h-66z" />
<glyph unicode="&#x201a;" horiz-adv-x="548" d="M186 0v193h176v-179l-94 -221h-65l49 207h-66z" />
<glyph unicode="&#x201c;" horiz-adv-x="927" d="M186 1116v176l95 224h65l-49 -207h65v-193h-176zM565 1116v176l94 224h66l-49 -207h63v-193h-174z" />
<glyph unicode="&#x201d;" horiz-adv-x="927" d="M186 1323v193h176v-179l-94 -221h-65l49 207h-66zM565 1323v193h174v-179l-94 -221h-65l51 207h-66z" />
<glyph unicode="&#x201e;" horiz-adv-x="927" d="M186 0v193h176v-179l-94 -221h-65l49 207h-66zM565 0v193h174v-179l-94 -221h-65l51 207h-66z" />
<glyph unicode="&#x2022;" horiz-adv-x="948" d="M233 717q0 106 68 173.5t172 67.5q106 0 174 -67.5t68 -173.5q0 -104 -67.5 -172t-174.5 -68q-104 0 -172 68t-68 172z" />
<glyph unicode="&#x2026;" horiz-adv-x="1646" d="M186 0v193h176v-193h-176zM735 0v193h178v-193h-178zM1284 0v193h178v-193h-178z" />
<glyph unicode="&#x202f;" horiz-adv-x="389" />
<glyph unicode="&#x2039;" horiz-adv-x="663" d="M92 541l303 538h148l-297 -538l297 -541h-148z" />
<glyph unicode="&#x203a;" horiz-adv-x="663" d="M119 0l299 541l-299 538h147l305 -538l-305 -541h-147z" />
<glyph unicode="&#x205f;" horiz-adv-x="485" />
<glyph unicode="&#x20ac;" horiz-adv-x="1468" d="M43 543v116h248q-2 25 -3 51.5t-1 55.5q0 23 1 44t1 44h-246v113h258q23 150 76 259t127 180t164 104.5t186 33.5q104 0 183 -31.5t136.5 -88t97.5 -136.5t64 -176l-133 -39q-23 80 -49.5 143.5t-66 107.5t-96 67.5t-138.5 23.5q-74 0 -140.5 -26.5t-120.5 -82 t-93 -139.5t-56 -200h465v-113h-477q-2 -20 -2 -40v-40q0 -31 1 -59.5t3 -55.5h475v-116h-463q35 -221 140.5 -333t271.5 -112q156 0 239 93.5t130 269.5l133 -35q-27 -100 -71 -184t-105.5 -144.5t-143.5 -93.5t-184 -33q-104 0 -194.5 35t-162 105.5t-121.5 178t-73 253.5 h-260z" />
<glyph unicode="&#x2122;" horiz-adv-x="1794" d="M61 1419v97h648v-97h-269v-770h-108v770h-271zM862 649v867h142l260 -723l264 723h143v-867h-110v680l-252 -680h-92l-252 680v-680h-103z" />
<glyph unicode="&#xe000;" horiz-adv-x="1080" d="M0 1080h1080v-1080h-1080v1080z" />
<glyph unicode="&#xfb01;" horiz-adv-x="1175" d="M55 958v121h189v162q0 137 77.5 207t225.5 70q18 0 41.5 -1t36.5 -4v-118q-12 2 -33 3t-37 1q-78 0 -124 -37t-46 -119v-164h229v-121h-229v-958h-141v958h-189zM840 1327v154h149v-154h-149zM844 0v1079h141v-1079h-141z" />
<glyph unicode="&#xfb02;" horiz-adv-x="1175" d="M55 958v121h189v162q0 137 77.5 207t225.5 70q18 0 41.5 -1t36.5 -4v-118q-12 2 -33 3t-37 1q-78 0 -124 -37t-46 -119v-164h229v-121h-229v-958h-141v958h-189zM844 0v1516h141v-1516h-141z" />
<glyph unicode="&#xfb03;" horiz-adv-x="1843" d="M1524 1329v152h150v-152h-150zM1528 0v1079h141v-1079h-141zM731 958v121h189v162q0 276 309 277q20 0 44 -1t38 -4v-118q-12 2 -33.5 3t-38.5 1q-78 0 -128 -34t-50 -122v-164h238v-121h-238v-958h-141v958h-189zM55 958v121h189v162q0 276 309 277q20 0 44 -1t38 -4 v-118q-12 2 -33.5 3t-38.5 1q-78 0 -128 -34t-50 -122v-164h238v-121h-238v-958h-141v958h-189z" />
<glyph unicode="&#xfb04;" horiz-adv-x="1843" d="M1528 0v1516h141v-1516h-141zM731 958v121h189v162q0 276 309 277q20 0 44 -1t38 -4v-118q-12 2 -33.5 3t-38.5 1q-78 0 -128 -34t-50 -122v-164h238v-121h-238v-958h-141v958h-189zM55 958v121h189v162q0 276 309 277q20 0 44 -1t38 -4v-118q-12 2 -33.5 3t-38.5 1 q-78 0 -128 -34t-50 -122v-164h238v-121h-238v-958h-141v958h-189z" />
</font>
</defs>
</svg>
